<?xml version="1.0" encoding="UTF-8" standalone="no"?>
<svg
   xmlns:dc="http://purl.org/dc/elements/1.1/"
   xmlns:cc="http://creativecommons.org/ns#"
   xmlns:rdf="http://www.w3.org/1999/02/22-rdf-syntax-ns#"
   xmlns:svg="http://www.w3.org/2000/svg"
   xmlns="http://www.w3.org/2000/svg"
   xmlns:sodipodi="http://sodipodi.sourceforge.net/DTD/sodipodi-0.dtd"
   xmlns:inkscape="http://www.inkscape.org/namespaces/inkscape"
   width="1em"
   height="1em"
   viewBox="0 0 16 16"
   class="bi bi-diagram-3-fill"
   fill="currentColor"
   version="1.1"
   id="svg3729"
   sodipodi:docname="fan-in-diagram-3-fill.svg"
   inkscape:version="0.92.4 (5da689c313, 2019-01-14)">
  <metadata
     id="metadata3735">
    <rdf:RDF>
      <cc:Work
         rdf:about="">
        <dc:format>image/svg+xml</dc:format>
        <dc:type
           rdf:resource="http://purl.org/dc/dcmitype/StillImage" />
        <dc:title></dc:title>
      </cc:Work>
    </rdf:RDF>
  </metadata>
  <defs
     id="defs3733" />
  <sodipodi:namedview
     pagecolor="#ffffff"
     bordercolor="#666666"
     borderopacity="1"
     objecttolerance="10"
     gridtolerance="10"
     guidetolerance="10"
     inkscape:pageopacity="0"
     inkscape:pageshadow="2"
     inkscape:window-width="1360"
     inkscape:window-height="715"
     id="namedview3731"
     showgrid="false"
     inkscape:zoom="34.125"
     inkscape:cx="5.3545701"
     inkscape:cy="8.1453092"
     inkscape:window-x="-8"
     inkscape:window-y="-8"
     inkscape:window-maximized="1"
     inkscape:current-layer="svg3729" />
  <path
     d="m 12.289377,7.9706959 a 0.5,0.5 0 0 0 -0.5,-0.5 h -1.5 v -5.5 a 0.5,0.5 0 0 0 -0.4999997,-0.5 h -1 a 0.5,0.5 0 0 0 0,1 h 0.5 v 5 h -0.5 a 0.5,0.5 0 0 0 0,1 h 0.5 v 5.0000001 h -0.5 a 0.5,0.5 0 0 0 0,1 h 1 a 0.5,0.5 0 0 0 0.4999997,-0.5 V 8.4706959 h 1.5 a 0.5,0.5 0 0 0 0.5,-0.5 z M 5.7893773,15.970696 a 1.5,1.5 0 0 0 1.5,-1.5 v -1 a 1.5,1.5 0 0 0 -1.5,-1.5 h -1 a 1.5,1.5 0 0 0 -1.5,1.5 v 1 a 1.5,1.5 0 0 0 1.5,1.5 z m 0,-6.0000001 a 1.5,1.5 0 0 0 1.5,-1.5 v -1 a 1.5,1.5 0 0 0 -1.5,-1.5 h -1 a 1.5,1.5 0 0 0 -1.5,1.5 v 1 a 1.5,1.5 0 0 0 1.5,1.5 z m 0,-6 a 1.5,1.5 0 0 0 1.5,-1.5 v -1 a 1.5,1.5 0 0 0 -1.5,-1.49999993 h -1 a 1.5,1.5 0 0 0 -1.5,1.49999993 v 1 a 1.5,1.5 0 0 0 1.5,1.5 z"
     id="path3725"
     inkscape:connector-curvature="0"
     style="fill-rule:evenodd" />
  <path
     d="m 13.789377,9.9706959 a 1.5,1.5 0 0 0 1.5,-1.5 v -1 a 1.5,1.5 0 0 0 -1.5,-1.5 h -1 a 1.5,1.5 0 0 0 -1.5,1.5 v 1 a 1.5,1.5 0 0 0 1.5,1.5 z"
     id="path3727"
     inkscape:connector-curvature="0"
     style="fill-rule:evenodd" />
</svg>
