<?xml version="1.0" encoding="UTF-8" standalone="no"?>
<svg
   xmlns:dc="http://purl.org/dc/elements/1.1/"
   xmlns:cc="http://creativecommons.org/ns#"
   xmlns:rdf="http://www.w3.org/1999/02/22-rdf-syntax-ns#"
   xmlns:svg="http://www.w3.org/2000/svg"
   xmlns="http://www.w3.org/2000/svg"
   xmlns:sodipodi="http://sodipodi.sourceforge.net/DTD/sodipodi-0.dtd"
   xmlns:inkscape="http://www.inkscape.org/namespaces/inkscape"
   width="1em"
   height="1em"
   viewBox="0 0 16 16"
   class="bi bi-diagram-3-fill"
   fill="currentColor"
   version="1.1"
   id="svg3787"
   sodipodi:docname="sequence-diagram-3-fill.svg"
   inkscape:version="0.92.4 (5da689c313, 2019-01-14)">
  <metadata
     id="metadata3793">
    <rdf:RDF>
      <cc:Work
         rdf:about="">
        <dc:format>image/svg+xml</dc:format>
        <dc:type
           rdf:resource="http://purl.org/dc/dcmitype/StillImage" />
        <dc:title></dc:title>
      </cc:Work>
    </rdf:RDF>
  </metadata>
  <defs
     id="defs3791" />
  <sodipodi:namedview
     pagecolor="#ffffff"
     bordercolor="#666666"
     borderopacity="1"
     objecttolerance="10"
     gridtolerance="10"
     guidetolerance="10"
     inkscape:pageopacity="0"
     inkscape:pageshadow="2"
     inkscape:window-width="1360"
     inkscape:window-height="715"
     id="namedview3789"
     showgrid="false"
     inkscape:zoom="14.75"
     inkscape:cx="8"
     inkscape:cy="8"
     inkscape:window-x="-8"
     inkscape:window-y="-8"
     inkscape:window-maximized="1"
     inkscape:current-layer="svg3787" />
  <path
     style="fill-rule:evenodd;stroke-width:0.90197521"
     d="m 7.9322034,5.9491525 a 0.5,0.40677966 0 0 1 0.5,0.4067797 v 1.220339 h 5.4999996 a 0.5,0.40677966 0 0 1 0.5,0.4067796 v 0.8135593 a 0.5,0.40677966 0 0 1 -1,0 V 8.3898305 H 8.4322034 v 0.4067796 a 0.5,0.40677966 0 0 1 -1,0 V 8.3898305 h -5 v 0.4067796 a 0.5,0.40677966 0 0 1 -1,0 V 7.9830508 a 0.5,0.40677966 0 0 1 0.5,-0.4067796 h 5.5 v -1.220339 a 0.5,0.40677966 0 0 1 0.5,-0.4067797 z"
     id="path3801"
     inkscape:connector-curvature="0" />
  <path
     style="fill-rule:evenodd"
     d="m 0.06779661,7.2966101 a 1.5,1.5 0 0 1 1.49999999,-1.5 h 1 a 1.5,1.5 0 0 1 1.5,1.5 v 1 a 1.5,1.5 0 0 1 -1.5,1.5000002 h -1 A 1.5,1.5 0 0 1 0.06779661,8.2966101 Z"
     id="path3799"
     inkscape:connector-curvature="0" />
  <path
     style="fill-rule:evenodd"
     d="m 6.0677966,7.2966101 a 1.5,1.5 0 0 1 1.5,-1.5 h 1 a 1.5,1.5 0 0 1 1.4999994,1.5 v 1 A 1.5,1.5 0 0 1 8.5677966,9.7966103 h -1 a 1.5,1.5 0 0 1 -1.5,-1.5000002 z"
     id="path3797"
     inkscape:connector-curvature="0" />
  <path
     style="fill-rule:evenodd"
     d="m 12.067796,7.2966101 a 1.5,1.5 0 0 1 1.5,-1.5 h 1 a 1.5,1.5 0 0 1 1.5,1.5 v 1 a 1.5,1.5 0 0 1 -1.5,1.5000002 h -1 a 1.5,1.5 0 0 1 -1.5,-1.5000002 z"
     id="path3783"
     inkscape:connector-curvature="0" />
</svg>
