<?xml version="1.0" encoding="UTF-8" standalone="no"?>
<svg
   xmlns:dc="http://purl.org/dc/elements/1.1/"
   xmlns:cc="http://creativecommons.org/ns#"
   xmlns:rdf="http://www.w3.org/1999/02/22-rdf-syntax-ns#"
   xmlns:svg="http://www.w3.org/2000/svg"
   xmlns="http://www.w3.org/2000/svg"
   xmlns:sodipodi="http://sodipodi.sourceforge.net/DTD/sodipodi-0.dtd"
   xmlns:inkscape="http://www.inkscape.org/namespaces/inkscape"
   width="1em"
   height="1em"
   viewBox="0 0 16 16"
   class="bi bi-diagram-3-fill"
   fill="currentColor"
   version="1.1"
   id="svg3729"
   sodipodi:docname="fan-in-_fan-out-diagram-3-fill.svg"
   inkscape:version="0.92.4 (5da689c313, 2019-01-14)">
  <metadata
     id="metadata3735">
    <rdf:RDF>
      <cc:Work
         rdf:about="">
        <dc:format>image/svg+xml</dc:format>
        <dc:type
           rdf:resource="http://purl.org/dc/dcmitype/StillImage" />
        <dc:title></dc:title>
      </cc:Work>
    </rdf:RDF>
  </metadata>
  <defs
     id="defs3733" />
  <sodipodi:namedview
     pagecolor="#ffffff"
     bordercolor="#666666"
     borderopacity="1"
     objecttolerance="10"
     gridtolerance="10"
     guidetolerance="10"
     inkscape:pageopacity="0"
     inkscape:pageshadow="2"
     inkscape:window-width="1360"
     inkscape:window-height="715"
     id="namedview3731"
     showgrid="false"
     inkscape:zoom="34.125"
     inkscape:cx="5.3545701"
     inkscape:cy="8.1453092"
     inkscape:window-x="-8"
     inkscape:window-y="-8"
     inkscape:window-maximized="1"
     inkscape:current-layer="svg3729" />
  <path
     d="m 13.385531,7.9706959 a 0.375,0.375 0 0 0 -0.375,-0.375 h -1.125 v -4.125 a 0.375,0.375 0 0 0 -0.375,-0.375 h -0.75 a 0.375,0.375 0 0 0 0,0.75 h 0.375 v 3.75 h -0.375 a 0.375,0.375 0 0 0 0,0.75 h 0.375 v 3.7500001 h -0.375 a 0.375,0.375 0 0 0 0,0.75 h 0.75 a 0.375,0.375 0 0 0 0.375,-0.375 V 8.3456959 h 1.125 a 0.375,0.375 0 0 0 0.375,-0.375 z M 8.5105312,13.970696 a 1.125,1.125 0 0 0 1.125,-1.125 v -0.75 a 1.125,1.125 0 0 0 -1.125,-1.125 h -0.75 a 1.125,1.125 0 0 0 -1.125,1.125 v 0.75 a 1.125,1.125 0 0 0 1.125,1.125 z m 0,-4.5000001 a 1.125,1.125 0 0 0 1.125,-1.125 v -0.75 a 1.125,1.125 0 0 0 -1.125,-1.125 h -0.75 a 1.125,1.125 0 0 0 -1.125,1.125 v 0.75 a 1.125,1.125 0 0 0 1.125,1.125 z m 0,-4.5 a 1.125,1.125 0 0 0 1.125,-1.125 v -0.75 a 1.125,1.125 0 0 0 -1.125,-1.1249999 h -0.75 a 1.125,1.125 0 0 0 -1.125,1.1249999 v 0.75 a 1.125,1.125 0 0 0 1.125,1.125 z"
     id="path3725"
     inkscape:connector-curvature="0"
     style="fill-rule:evenodd;stroke-width:0.75" />
  <path
     d="m 14.510531,9.4706959 a 1.125,1.125 0 0 0 1.125,-1.125 v -0.75 a 1.125,1.125 0 0 0 -1.125,-1.125 h -0.75 a 1.125,1.125 0 0 0 -1.125,1.125 v 0.75 a 1.125,1.125 0 0 0 1.125,1.125 z"
     id="path3727"
     inkscape:connector-curvature="0"
     style="fill-rule:evenodd;stroke-width:0.75" />
  <path
     style="fill-rule:evenodd;stroke-width:0.75"
     inkscape:connector-curvature="0"
     id="path3755"
     d="m 2.878205,7.9706962 a 0.375,0.375 0 0 0 0.375,0.375 h 1.1249998 v 4.1249998 a 0.375,0.375 0 0 0 0.375,0.375 h 0.75 a 0.375,0.375 0 0 0 0,-0.75 h -0.375 V 8.3456962 h 0.375 a 0.375,0.375 0 0 0 0,-0.75 h -0.375 v -3.75 h 0.375 a 0.375,0.375 0 0 0 0,-0.75 h -0.75 a 0.375,0.375 0 0 0 -0.375,0.375 v 4.125 H 3.253205 a 0.375,0.375 0 0 0 -0.375,0.375 z m 4.8749998,-6 a 1.125,1.125 0 0 0 -1.125,1.125 v 0.75 a 1.125,1.125 0 0 0 1.125,1.125 h 0.75 a 1.125,1.125 0 0 0 1.125,-1.125 v -0.75 a 1.125,1.125 0 0 0 -1.125,-1.125 z m 0,4.5 a 1.125,1.125 0 0 0 -1.125,1.125 v 0.75 a 1.125,1.125 0 0 0 1.125,1.1249999 h 0.75 a 1.125,1.125 0 0 0 1.125,-1.1249999 v -0.75 a 1.125,1.125 0 0 0 -1.125,-1.125 z m 0,4.4999998 a 1.125,1.125 0 0 0 -1.125,1.125 v 0.75 a 1.125,1.125 0 0 0 1.125,1.125 h 0.75 a 1.125,1.125 0 0 0 1.125,-1.125 v -0.75 a 1.125,1.125 0 0 0 -1.125,-1.125 z" />
  <path
     style="fill-rule:evenodd;stroke-width:0.75"
     inkscape:connector-curvature="0"
     id="path3757"
     d="m 1.753205,6.4706962 a 1.125,1.125 0 0 0 -1.12500004,1.125 v 0.75 A 1.125,1.125 0 0 0 1.753205,9.4706961 h 0.75 a 1.125,1.125 0 0 0 1.125,-1.1249999 v -0.75 a 1.125,1.125 0 0 0 -1.125,-1.125 z" />
</svg>
