<?xml version="1.0" encoding="UTF-8" standalone="no"?>
<svg
   xmlns:dc="http://purl.org/dc/elements/1.1/"
   xmlns:cc="http://creativecommons.org/ns#"
   xmlns:rdf="http://www.w3.org/1999/02/22-rdf-syntax-ns#"
   xmlns:svg="http://www.w3.org/2000/svg"
   xmlns="http://www.w3.org/2000/svg"
   id="svg3729"
   version="1.1"
   fill="currentColor"
   class="bi bi-diagram-3-fill"
   viewBox="0 0 16 16"
   height="1em"
   width="1em">
  <metadata
     id="metadata3735">
    <rdf:RDF>
      <cc:Work
         rdf:about="">
        <dc:format>image/svg+xml</dc:format>
        <dc:type
           rdf:resource="http://purl.org/dc/dcmitype/StillImage" />
        <dc:title></dc:title>
      </cc:Work>
    </rdf:RDF>
  </metadata>
  <defs
     id="defs3733" />
  <path
     style="fill-rule:evenodd"
     id="path3725"
     d="M 5,8 A 0.5,0.5 0 0 0 5.5,8.5 H 7 L 7,14 a 0.5,0.5 0 0 0 0.5,0.5 h 1 a 0.5,0.5 0 0 0 0,-1 H 8 v -5 h 0.5 a 0.5,0.5 0 0 0 0,-1 H 8 v -5 h 0.5 a 0.5,0.5 0 0 0 0,-1 h -1 A 0.5,0.5 0 0 0 7,2 V 7.5 H 5.5 A 0.5,0.5 0 0 0 5,8 Z M 11.5,0 A 1.5,1.5 0 0 0 10,1.5 v 1 A 1.5,1.5 0 0 0 11.5,4 h 1 A 1.5,1.5 0 0 0 14,2.5 v -1 A 1.5,1.5 0 0 0 12.5,0 Z m 0,6 A 1.5,1.5 0 0 0 10,7.5 v 1 a 1.5,1.5 0 0 0 1.5,1.5 h 1 A 1.5,1.5 0 0 0 14,8.5 v -1 A 1.5,1.5 0 0 0 12.5,6 Z m 0,6 A 1.5,1.5 0 0 0 10,13.5 v 1 a 1.5,1.5 0 0 0 1.5,1.5 h 1 A 1.5,1.5 0 0 0 14,14.5 v -1 A 1.5,1.5 0 0 0 12.5,12 Z" />
  <path
     style="fill-rule:evenodd"
     id="path3727"
     d="M 3.5,6 A 1.5,1.5 0 0 0 2,7.5 v 1 A 1.5,1.5 0 0 0 3.5,10 h 1 A 1.5,1.5 0 0 0 6,8.5 v -1 A 1.5,1.5 0 0 0 4.5,6 Z" />
</svg>
